{"glyphs":{":":{"x_min":0,"x_max":603,"ha":603,"o":"m 306 386 l 335 530 l 479 530 l 451 386 z m 229 0 l 258 145 l 402 145 l 374 0 z"},"$":{"x_min":0,"x_max":603,"ha":603,"o":"m 272 -60 l 284 0 q 257 0 216 6 q 175 13 113 39 l 129 121 q 223 71 298 71 l 351 333 l 320 356 q 224 431 224 508 q 224 584 283 650 q 343 715 435 723 l 446 783 l 507 783 l 495 723 q 543 720 571 712 q 600 705 636 691 l 620 612 q 556 647 481 655 l 430 397 l 458 377 q 503 347 531 311 q 559 275 559 228 q 559 178 531 127 q 503 77 458 43 q 412 9 344 0 l 332 -60 z m 358 72 q 396 80 418 100 q 440 120 453 147 q 467 175 467 199 q 467 223 454 245 q 441 267 423 282 l 403 297 z m 377 435 l 420 650 q 377 645 346 606 q 315 568 315 526 q 315 488 359 450 z"},"?":{"x_min":0,"x_max":603,"ha":603,"o":"m 204 0 l 226 108 l 346 108 l 324 0 z m 257 205 l 260 218 q 271 273 301 322 q 332 371 409 425 l 449 454 q 544 521 544 586 q 544 625 506 647 q 469 668 398 668 q 343 668 283 654 l 266 571 l 194 571 l 222 712 q 327 741 426 741 q 547 741 598 705 q 649 669 649 610 q 649 512 521 422 l 464 383 q 405 342 386 307 q 367 273 360 239 l 353 205 z"},"<":{"x_min":0,"x_max":603,"ha":603,"o":"m 560 0 l 94 259 l 664 518 l 647 437 l 255 259 l 576 81 z"},"'":{"x_min":0,"x_max":603,"ha":603,"o":"m 359 470 l 383 771 l 528 771 l 431 470 z"},"=":{"x_min":0,"x_max":603,"ha":603,"o":"m 70 139 l 84 211 l 602 211 l 588 139 z m 104 307 l 118 379 l 636 379 l 622 307 z"},"a":{"x_min":0,"x_max":603,"ha":603,"o":"m 424 64 q 373 27 325 9 q 278 -9 234 -9 q 175 -9 135 22 q 94 54 94 108 q 94 167 135 217 q 177 268 246 294 q 315 320 400 320 l 459 320 l 469 366 q 474 390 474 407 q 474 436 451 453 q 429 470 382 470 q 298 470 200 423 l 216 505 q 283 527 326 535 q 370 542 417 542 q 504 542 538 513 q 573 483 573 434 q 573 404 565 364 l 521 142 q 513 106 513 94 q 513 80 524 70 q 534 59 552 59 q 562 59 584 64 l 581 6 q 529 -9 504 -9 q 477 -9 454 3 q 430 16 424 64 z m 421 126 l 448 260 l 419 260 q 306 260 252 225 q 198 189 198 136 q 198 100 220 84 q 242 68 275 68 q 307 68 343 83 q 379 97 421 126 z"},"L":{"x_min":0,"x_max":603,"ha":603,"o":"m 108 0 l 253 723 l 349 723 l 219 72 l 557 72 l 542 0 z"},"3":{"x_min":0,"x_max":603,"ha":603,"o":"m 115 3 l 132 88 q 198 64 225 59 q 252 54 278 54 q 355 54 405 110 q 455 166 455 234 q 455 293 416 323 q 376 353 298 353 l 251 353 l 265 422 l 293 422 q 385 422 426 446 q 466 470 488 508 q 510 546 510 588 q 510 624 485 646 q 460 668 415 668 q 340 668 250 629 l 268 713 q 352 741 430 741 q 530 741 570 703 q 610 665 610 610 q 610 569 592 530 q 573 490 536 455 q 499 419 440 395 q 510 369 534 331 q 558 292 558 242 q 558 177 519 114 q 479 51 417 16 q 354 -18 259 -18 q 189 -18 115 3 z"},";":{"x_min":0,"x_max":603,"ha":603,"o":"m 198 -157 l 208 -108 q 232 -105 245 -93 q 258 -80 269 -60 q 279 -40 289 0 l 229 0 l 258 145 l 402 145 l 385 57 q 369 -22 344 -63 q 318 -104 282 -129 q 247 -154 198 -157 z m 306 386 l 335 530 l 479 530 l 451 386 z"},"J":{"x_min":0,"x_max":603,"ha":603,"o":"m 97 5 l 113 87 l 144 76 q 183 62 203 58 q 223 54 246 54 q 317 54 354 96 q 374 119 383 145 q 393 171 401 216 l 488 650 l 271 650 l 286 723 l 599 723 l 508 267 q 492 188 476 143 q 460 97 422 57 q 388 21 340 1 q 292 -18 237 -18 q 182 -18 97 5 z"},"V":{"x_min":0,"x_max":603,"ha":603,"o":"m 250 0 l 151 723 l 253 723 l 334 128 l 657 723 l 740 723 l 347 0 z"},"\"":{"x_min":0,"x_max":603,"ha":603,"o":"m 246 506 l 275 771 l 395 771 l 318 506 z m 487 506 l 516 771 l 636 771 l 559 506 z"},"7":{"x_min":0,"x_max":603,"ha":603,"o":"m 137 0 q 153 51 170 85 q 188 120 220 170 q 252 220 365 367 l 569 632 l 225 632 l 243 723 l 678 723 l 662 642 l 631 603 q 517 459 440 346 q 363 233 320 155 q 276 76 252 0 z"},"S":{"x_min":0,"x_max":603,"ha":603,"o":"m 83 17 l 102 112 q 217 54 308 54 q 354 54 396 72 q 437 90 462 127 q 486 165 486 201 q 486 256 421 294 l 295 367 q 247 396 219 430 q 191 463 191 515 q 191 574 225 628 q 258 682 314 711 q 370 741 453 741 q 535 741 635 711 l 618 628 q 521 668 441 668 q 360 668 323 631 q 286 593 286 548 q 286 524 302 501 q 317 477 361 452 l 479 384 q 542 347 565 313 q 588 278 588 234 q 588 170 548 108 q 509 47 441 14 q 374 -18 283 -18 q 251 -18 212 -13 q 172 -9 83 17 z"},"}":{"x_min":0,"x_max":603,"ha":603,"o":"m 74 -145 l 88 -72 l 126 -72 q 190 -72 220 -60 q 250 -48 265 -21 q 279 6 279 53 l 281 120 q 281 167 295 206 q 309 246 338 273 q 367 300 410 313 q 379 324 365 341 q 350 358 344 375 q 338 392 338 412 q 338 450 358 506 l 383 574 q 399 617 399 638 q 399 669 375 684 q 352 699 280 699 l 242 699 l 257 771 l 310 771 q 406 771 448 741 q 489 711 489 653 q 489 622 467 564 l 433 478 q 419 441 419 414 q 419 388 440 369 q 461 350 514 350 l 558 350 l 543 277 l 499 277 q 450 277 420 259 q 391 241 379 213 q 368 185 368 149 l 367 62 q 367 -10 340 -54 q 312 -99 262 -122 q 211 -145 126 -145 z"},"Z":{"x_min":0,"x_max":603,"ha":603,"o":"m 48 0 l 62 72 l 571 650 l 203 650 l 217 723 l 695 723 l 681 650 l 172 72 l 569 72 l 554 0 z"},"x":{"x_min":0,"x_max":603,"ha":603,"o":"m 45 0 l 296 268 l 152 530 l 273 530 l 380 334 l 554 530 l 648 530 l 417 269 l 563 0 l 443 0 l 332 203 l 143 0 z"},")":{"x_min":0,"x_max":603,"ha":603,"o":"m 227 771 q 319 761 380 714 q 440 667 474 588 q 508 509 508 421 q 508 292 448 168 q 388 43 281 -43 q 175 -130 43 -145 l 57 -78 q 168 -56 243 13 q 318 83 365 197 q 411 311 411 429 q 411 494 393 552 q 375 610 333 649 q 291 688 213 705 z"},"&":{"x_min":0,"x_max":603,"ha":603,"o":"m 473 0 l 446 43 q 354 -18 245 -18 q 150 -18 101 36 q 52 90 52 164 q 52 232 95 304 q 138 376 272 429 q 254 497 254 535 q 254 626 312 683 q 371 741 451 741 q 505 741 542 711 q 578 681 578 633 q 578 572 536 517 q 493 461 383 405 q 394 370 417 317 q 440 264 455 238 q 469 212 498 166 q 524 196 539 225 q 554 254 566 292 q 578 330 586 385 l 683 385 q 660 295 624 228 q 588 160 531 108 q 565 54 606 0 z m 415 99 q 361 186 334 245 q 308 305 289 369 q 222 339 189 295 q 157 250 157 192 q 157 137 188 95 q 219 54 278 54 q 340 54 415 99 z m 367 469 q 422 493 454 534 q 486 574 486 614 q 486 642 472 655 q 458 668 438 668 q 406 668 380 638 q 354 608 354 559 q 354 522 367 469 z"},"_":{"x_min":0,"x_max":603,"ha":603,"o":"m -14 -72 l 0 0 l 603 0 l 588 -72 z"},"v":{"x_min":0,"x_max":603,"ha":603,"o":"m 250 0 l 136 530 l 235 530 l 326 105 l 592 530 l 678 530 l 347 0 z"},"O":{"x_min":0,"x_max":603,"ha":603,"o":"m 296 -18 q 197 -18 144 48 q 90 114 90 234 q 90 382 155 521 q 203 624 279 682 q 354 741 449 741 q 554 741 606 674 q 659 606 659 489 q 659 418 642 342 q 625 267 594 201 q 544 98 470 40 q 395 -18 296 -18 z m 312 54 q 355 54 391 74 q 428 95 452 128 q 504 199 532 311 q 559 423 559 512 q 559 585 528 627 q 496 668 436 668 q 393 668 356 647 q 320 626 296 594 q 246 526 218 415 q 190 304 190 211 q 190 138 221 96 q 253 54 312 54 z"},"(":{"x_min":0,"x_max":603,"ha":603,"o":"m 503 -145 q 410 -134 350 -87 q 289 -40 255 39 q 222 118 222 206 q 222 334 282 459 q 342 584 448 671 q 555 757 686 771 l 673 705 q 561 683 486 614 q 411 544 364 430 q 318 315 318 198 q 318 132 336 74 q 354 16 397 -23 q 439 -62 516 -78 z"},"C":{"x_min":0,"x_max":603,"ha":603,"o":"m 569 17 q 466 -18 380 -18 q 254 -18 184 52 q 113 123 113 256 q 113 380 172 502 q 232 624 325 682 q 418 741 529 741 q 610 741 700 713 l 683 624 q 594 669 516 669 q 436 669 370 619 q 304 569 260 469 q 217 368 217 271 q 217 171 273 116 q 330 61 421 61 q 487 61 585 96 z"},"W":{"x_min":0,"x_max":603,"ha":603,"o":"m 101 0 l 152 723 l 234 723 l 188 106 l 188 106 l 364 530 l 456 530 l 462 112 l 463 112 l 666 723 l 739 723 l 491 0 l 387 0 l 381 404 l 380 404 l 212 0 z"},"A":{"x_min":0,"x_max":603,"ha":603,"o":"m 6 0 l 397 723 l 494 723 l 596 0 l 494 0 l 465 205 l 200 205 l 89 0 z m 239 277 l 455 277 l 410 594 z"},"f":{"x_min":0,"x_max":603,"ha":603,"o":"m 217 0 l 306 446 l 161 446 l 176 518 l 320 518 l 332 574 q 344 635 361 668 q 389 722 446 753 q 504 783 596 783 q 624 783 656 781 q 688 778 739 762 l 724 686 q 657 711 588 711 q 520 711 479 682 q 461 668 450 649 q 439 629 430 584 l 417 518 l 670 518 l 655 446 l 402 446 l 313 0 z"},"Q":{"x_min":0,"x_max":603,"ha":603,"o":"m 521 -157 q 457 -129 415 -98 q 374 -67 332 -18 l 299 -18 q 196 -18 143 49 q 90 115 90 234 q 90 360 139 483 q 188 606 267 674 q 347 741 449 741 q 554 741 606 674 q 659 607 659 489 q 659 393 629 295 q 600 197 551 126 q 501 55 422 6 q 498 -52 601 -76 z m 190 210 q 190 138 221 96 q 253 54 313 54 q 382 54 435 108 q 488 162 523 282 q 559 402 559 512 q 559 585 528 627 q 496 668 436 668 q 367 668 313 614 q 260 560 225 443 q 190 326 190 210 z"},"w":{"x_min":0,"x_max":603,"ha":603,"o":"m 103 0 l 112 530 l 201 530 l 188 115 l 189 115 l 356 482 l 450 482 l 463 101 l 464 101 l 628 530 l 702 530 l 490 0 l 396 0 l 381 396 l 380 396 l 198 0 z"},"-":{"x_min":0,"x_max":603,"ha":603,"o":"m 155 265 l 170 337 l 567 337 l 553 265 z"},"E":{"x_min":0,"x_max":603,"ha":603,"o":"m 105 0 l 250 723 l 673 723 l 659 650 l 332 650 l 286 418 l 562 418 l 548 346 l 271 346 l 216 72 l 565 72 l 551 0 z"},"s":{"x_min":0,"x_max":603,"ha":603,"o":"m 96 21 l 113 108 q 176 79 219 69 q 262 60 297 60 q 356 60 399 84 q 424 99 437 118 q 450 138 450 154 q 450 174 434 189 q 418 204 372 219 l 276 253 q 233 268 207 295 q 180 323 180 364 q 180 434 241 488 q 302 542 422 542 q 453 542 487 539 q 521 536 590 519 l 575 441 q 485 470 407 470 q 346 470 311 446 q 276 422 276 390 q 276 373 288 360 q 300 348 336 335 l 449 292 q 502 272 525 248 q 548 223 548 181 q 548 105 477 47 q 406 -12 284 -12 q 193 -12 96 21 z"},">":{"x_min":0,"x_max":603,"ha":603,"o":"m 146 518 l 612 259 l 42 0 l 58 81 l 450 259 l 129 437 z"},"l":{"x_min":0,"x_max":603,"ha":603,"o":"m 289 0 l 429 699 l 224 699 l 239 771 l 540 771 l 386 0 z"},"8":{"x_min":0,"x_max":603,"ha":603,"o":"m 296 394 q 227 453 227 525 q 227 579 260 632 q 292 684 346 712 q 399 741 476 741 q 559 741 596 708 q 634 674 634 618 q 634 556 589 498 q 544 440 466 398 q 539 348 562 311 q 584 273 584 228 q 584 167 546 108 q 508 49 445 16 q 382 -18 303 -18 q 216 -18 165 25 q 115 67 115 142 q 115 214 165 281 q 214 349 296 394 z m 340 354 q 260 298 237 251 q 213 204 213 162 q 213 108 246 81 q 279 54 327 54 q 368 54 404 73 q 439 92 461 125 q 482 158 482 192 q 482 259 396 316 z m 418 431 q 475 462 509 506 q 542 549 542 589 q 542 621 522 645 q 501 668 452 668 q 389 668 355 632 q 321 595 321 553 q 321 497 396 446 z"},"\\":{"x_min":0,"x_max":603,"ha":603,"o":"m 457 -145 l 190 771 l 271 771 l 537 -145 z"},"e":{"x_min":0,"x_max":603,"ha":603,"o":"m 543 21 q 497 6 468 0 q 439 -6 411 -9 q 382 -12 353 -12 q 235 -12 176 39 q 117 89 117 191 q 117 277 157 357 q 197 437 269 490 q 341 542 428 542 q 511 542 557 502 q 603 462 603 384 q 603 332 590 271 l 584 240 l 223 240 q 219 210 219 197 q 219 123 266 92 q 313 60 379 60 q 458 60 559 97 z m 240 312 l 496 312 q 504 352 504 376 q 504 423 478 447 q 451 470 407 470 q 354 470 308 429 q 263 389 240 312 z"},"b":{"x_min":0,"x_max":603,"ha":603,"o":"m 83 -6 l 238 771 l 334 771 l 286 530 l 260 431 l 267 431 q 312 486 361 514 q 410 542 461 542 q 537 542 575 495 q 613 447 613 368 q 613 275 574 183 q 535 91 467 39 q 399 -12 323 -12 q 285 -12 252 2 q 219 17 192 60 l 187 60 l 155 -6 z m 207 132 q 233 96 262 78 q 292 60 323 60 q 371 60 415 97 q 459 135 484 213 q 509 291 509 358 q 509 407 486 433 q 463 460 427 460 q 391 460 345 436 q 300 412 252 358 z"},"%":{"x_min":0,"x_max":603,"ha":603,"o":"m -3 -18 l 677 741 l 750 741 l 70 -18 z m 226 392 q 176 392 142 422 q 108 453 108 519 q 108 570 135 621 q 163 672 204 697 q 246 723 293 723 q 344 723 377 691 q 411 660 411 595 q 411 543 383 492 q 354 440 314 416 q 273 392 226 392 z m 236 440 q 263 440 288 463 q 313 486 326 525 q 339 563 339 601 q 339 632 324 654 q 309 675 284 675 q 256 675 231 652 q 206 628 193 590 q 180 551 180 513 q 180 482 195 461 q 210 440 236 440 z m 454 0 q 404 0 370 31 q 336 62 336 127 q 336 179 364 229 q 391 280 432 306 q 474 332 521 332 q 572 332 606 300 q 639 269 639 204 q 639 152 611 100 q 583 48 542 24 q 501 0 454 0 z m 464 48 q 491 48 516 71 q 541 94 554 133 q 568 171 568 209 q 568 241 552 262 q 537 283 512 283 q 484 283 459 260 q 435 237 421 198 q 408 159 408 122 q 408 91 423 70 q 438 48 464 48 z"},"m":{"x_min":0,"x_max":603,"ha":603,"o":"m 45 0 l 151 530 l 236 530 l 210 431 l 216 431 q 256 483 290 513 q 323 542 356 542 q 387 542 406 519 q 426 496 426 455 q 426 448 424 431 l 430 431 q 458 475 496 508 q 534 542 572 542 q 603 542 624 521 q 645 500 645 462 q 645 439 635 388 l 558 0 l 473 0 l 550 384 q 557 420 557 432 q 557 447 549 453 q 541 459 535 459 q 512 459 477 424 q 442 389 412 342 l 344 0 l 259 0 l 333 367 q 342 415 342 427 q 342 442 335 450 q 328 458 319 458 q 298 458 263 424 q 228 390 198 341 l 130 0 z"},"#":{"x_min":0,"x_max":603,"ha":603,"o":"m 83 0 l 182 220 l 69 220 l 98 292 l 214 292 l 278 435 l 155 435 l 184 507 l 311 507 l 407 723 l 481 723 l 385 507 l 499 507 l 595 723 l 669 723 l 573 507 l 684 507 l 655 435 l 540 435 l 475 292 l 598 292 l 569 220 l 443 220 l 346 0 l 271 0 l 368 220 l 255 220 l 158 0 z m 289 292 l 401 292 l 465 435 l 353 435 z"},",":{"x_min":0,"x_max":603,"ha":603,"o":"m 198 -157 l 208 -108 q 229 -105 241 -96 q 252 -87 262 -72 q 272 -57 283 -22 l 289 0 l 229 0 l 258 145 l 402 145 l 385 57 q 369 -22 344 -63 q 318 -104 282 -129 q 247 -154 198 -157 z"},"n":{"x_min":0,"x_max":603,"ha":603,"o":"m 89 0 l 195 530 l 291 530 l 265 431 l 271 431 q 313 484 367 513 q 420 542 475 542 q 531 542 564 511 q 597 480 597 434 q 597 404 589 363 l 517 0 l 420 0 l 487 336 q 495 373 495 391 q 495 417 477 434 q 459 451 427 451 q 387 451 346 425 q 304 399 254 347 l 185 0 z"},"h":{"x_min":0,"x_max":603,"ha":603,"o":"m 89 0 l 243 771 l 339 771 l 291 530 l 265 431 l 271 431 q 313 484 367 513 q 420 542 475 542 q 531 542 564 511 q 597 480 597 434 q 597 404 589 363 l 517 0 l 420 0 l 487 336 q 495 373 495 391 q 495 417 477 434 q 459 451 427 451 q 387 451 346 425 q 304 399 254 347 l 185 0 z"},"z":{"x_min":0,"x_max":603,"ha":603,"o":"m 66 0 l 81 72 l 505 458 l 170 458 l 185 530 l 633 530 l 619 458 l 194 72 l 551 72 l 536 0 z"},"B":{"x_min":0,"x_max":603,"ha":603,"o":"m 90 0 l 235 723 l 437 723 q 518 723 553 710 q 588 697 608 667 q 627 637 627 595 q 627 553 608 513 q 588 473 552 439 q 517 406 444 376 q 496 361 525 337 q 554 313 568 284 q 583 254 583 217 q 583 160 549 108 q 516 56 461 28 q 407 0 279 0 z m 267 404 l 301 404 q 383 404 428 425 q 472 445 498 484 q 524 522 524 562 q 524 591 510 611 q 495 632 465 641 q 436 650 361 650 l 317 650 z m 201 72 l 288 72 q 372 72 405 88 q 437 104 459 140 q 481 177 481 215 q 481 267 435 305 q 390 343 291 343 l 255 343 z"},"K":{"x_min":0,"x_max":603,"ha":603,"o":"m 83 0 l 227 723 l 323 723 l 252 368 l 585 723 l 683 723 l 361 379 l 587 0 l 472 0 l 252 368 l 179 0 z"},"R":{"x_min":0,"x_max":603,"ha":603,"o":"m 90 0 l 234 723 l 410 723 q 504 723 544 707 q 583 692 602 659 q 621 626 621 583 q 621 538 597 489 q 573 440 536 405 q 499 369 430 337 l 587 0 l 471 0 l 335 309 l 248 309 l 186 0 z m 262 381 l 313 381 q 371 381 416 406 q 460 430 488 476 q 516 521 516 566 q 516 594 503 613 q 490 631 464 641 q 438 650 375 650 l 316 650 z"},"T":{"x_min":0,"x_max":603,"ha":603,"o":"m 253 0 l 383 650 l 142 650 l 157 723 l 735 723 l 721 650 l 479 650 l 350 0 z"},"P":{"x_min":0,"x_max":603,"ha":603,"o":"m 111 0 l 256 723 l 459 723 q 587 723 632 687 q 676 650 676 580 q 676 501 633 432 q 590 362 513 325 q 437 289 335 289 l 266 289 l 208 0 z m 280 361 l 340 361 q 470 361 521 428 q 571 496 571 560 q 571 589 558 609 q 545 629 520 640 q 494 650 433 650 l 338 650 z"},"|":{"x_min":0,"x_max":603,"ha":603,"o":"m 236 -145 l 419 771 l 492 771 l 309 -145 z"},"t":{"x_min":0,"x_max":603,"ha":603,"o":"m 538 0 q 463 -12 396 -12 q 309 -12 266 13 q 223 38 223 93 q 223 134 234 190 l 285 446 l 152 446 l 167 518 l 299 518 l 322 632 l 419 632 l 396 518 l 631 518 l 616 446 l 381 446 l 327 174 q 320 136 320 119 q 320 91 350 75 q 380 60 431 60 q 491 60 553 74 z"},"M":{"x_min":0,"x_max":603,"ha":603,"o":"m 46 0 l 190 723 l 306 723 l 361 312 l 362 312 l 580 723 l 700 723 l 556 0 l 478 0 l 604 634 l 604 634 l 374 193 l 293 193 l 238 623 l 237 623 l 113 0 z"},"g":{"x_min":0,"x_max":603,"ha":603,"o":"m 68 -177 l 95 -96 q 152 -123 184 -128 q 217 -133 247 -133 q 327 -133 370 -97 q 394 -77 406 -52 q 419 -26 432 14 l 461 110 l 455 110 q 429 76 412 62 q 395 48 376 36 q 346 17 317 9 q 289 0 258 0 q 186 0 145 44 q 103 88 103 179 q 103 275 150 368 q 191 451 253 497 q 315 542 391 542 q 431 542 461 529 q 492 516 530 470 l 536 470 l 548 530 l 632 530 l 547 106 q 531 25 512 -28 q 493 -81 449 -126 q 406 -170 354 -188 q 302 -205 233 -205 q 200 -205 166 -201 q 132 -197 68 -177 z m 467 188 l 509 396 q 480 438 452 454 q 423 470 390 470 q 323 470 279 415 q 247 373 227 310 q 208 247 208 192 q 208 144 230 114 q 252 84 296 84 q 341 84 396 121 q 414 133 429 146 q 443 158 467 188 z"},"j":{"x_min":0,"x_max":603,"ha":603,"o":"m 37 -179 l 53 -99 q 73 -109 83 -113 q 107 -122 136 -127 q 165 -133 194 -133 q 259 -133 288 -98 q 306 -77 314 -51 q 323 -24 331 13 l 419 458 l 203 458 l 217 530 l 530 530 l 431 33 q 419 -27 402 -69 q 385 -110 351 -143 q 316 -175 273 -190 q 229 -205 180 -205 q 111 -205 37 -179 z m 446 650 l 470 771 l 591 771 l 566 650 z"},"i":{"x_min":0,"x_max":603,"ha":603,"o":"m 277 0 l 369 458 l 176 458 l 190 530 l 479 530 l 374 0 z m 395 650 l 419 771 l 540 771 l 516 650 z"},"y":{"x_min":0,"x_max":603,"ha":603,"o":"m 31 -193 l 45 -121 l 84 -121 q 142 -121 173 -99 q 191 -86 204 -71 q 216 -55 235 -27 l 269 23 l 147 530 l 247 530 l 341 133 l 595 530 l 681 530 l 295 -68 q 253 -133 199 -167 q 173 -183 144 -188 q 115 -193 72 -193 z"},"@":{"x_min":0,"x_max":603,"ha":603,"o":"m 474 16 q 377 -18 312 -18 q 215 -18 155 49 q 94 116 94 237 q 94 360 153 483 q 211 605 300 673 q 389 741 497 741 q 576 741 616 706 q 656 670 656 600 q 656 564 648 525 l 584 205 l 645 205 l 632 145 l 500 145 l 532 307 q 480 208 437 174 q 394 139 357 139 q 326 139 303 168 q 281 198 281 250 q 281 331 316 410 q 352 489 409 536 q 467 584 526 584 q 552 584 584 568 l 585 586 q 585 638 554 659 q 524 681 483 681 q 409 681 340 627 q 271 574 219 464 q 168 354 168 249 q 168 145 216 94 q 264 42 333 42 q 396 42 487 83 z m 557 428 l 573 512 q 555 526 543 529 q 532 532 520 532 q 477 532 439 496 q 401 459 378 391 q 355 322 355 268 q 355 208 383 210 q 418 212 471 288 q 524 364 557 428 z"},".":{"x_min":0,"x_max":603,"ha":603,"o":"m 229 0 l 258 145 l 402 145 l 374 0 z"},"p":{"x_min":0,"x_max":603,"ha":603,"o":"m 49 -193 l 193 530 l 290 530 l 264 431 l 270 431 q 316 486 365 514 q 413 542 464 542 q 540 542 578 495 q 617 447 617 368 q 617 319 604 265 q 591 210 569 165 q 529 82 464 35 q 398 -12 326 -12 q 288 -12 255 2 q 223 17 196 60 l 190 60 l 181 -12 l 146 -193 z m 210 132 q 237 96 266 78 q 295 60 327 60 q 358 60 391 78 q 423 96 444 124 q 478 168 495 237 q 513 306 513 358 q 513 407 490 433 q 466 460 431 460 q 395 460 349 436 q 303 412 255 358 z"},"X":{"x_min":0,"x_max":603,"ha":603,"o":"m 5 0 l 323 369 l 171 723 l 285 723 l 401 453 l 633 723 l 727 723 l 432 380 l 595 0 l 481 0 l 354 296 l 99 0 z"},"*":{"x_min":0,"x_max":603,"ha":603,"o":"m 454 551 l 616 619 l 627 527 l 461 494 q 464 508 464 516 q 464 533 454 551 z m 453 480 l 540 359 l 450 302 l 397 444 q 430 454 453 480 z m 382 444 l 273 302 l 207 359 l 341 480 q 348 464 357 457 q 366 449 382 444 z m 339 494 l 186 527 l 233 619 l 369 551 q 345 526 339 494 z m 383 560 l 397 723 l 494 723 l 443 560 q 427 566 415 566 q 401 566 383 560 z"},"Y":{"x_min":0,"x_max":603,"ha":603,"o":"m 253 0 l 313 305 l 160 723 l 271 723 l 391 396 l 652 723 l 743 723 l 410 305 l 349 0 z"},"c":{"x_min":0,"x_max":603,"ha":603,"o":"m 545 17 q 454 -12 367 -12 q 249 -12 188 41 q 128 94 128 193 q 128 285 170 367 q 212 449 288 496 q 364 542 469 542 q 555 542 635 517 l 619 436 q 531 470 467 470 q 398 470 345 437 q 293 403 263 340 q 232 276 232 209 q 232 137 276 99 q 319 60 396 60 q 466 60 560 93 z"},"!":{"x_min":0,"x_max":603,"ha":603,"o":"m 306 205 l 368 578 l 397 723 l 494 723 l 465 578 l 378 205 z m 241 0 l 262 108 l 383 108 l 361 0 z"},"/":{"x_min":0,"x_max":603,"ha":603,"o":"m 720 771 l 88 -145 l 7 -145 l 639 771 z"},"[":{"x_min":0,"x_max":603,"ha":603,"o":"m 188 -145 l 371 771 l 672 771 l 658 699 l 441 699 l 287 -72 l 503 -72 l 489 -145 z"},"6":{"x_min":0,"x_max":603,"ha":603,"o":"m 651 714 l 635 631 q 580 658 555 663 q 530 669 505 669 q 409 669 344 585 q 280 501 254 370 q 287 406 315 424 q 344 442 376 452 q 408 462 441 462 q 483 462 520 441 q 556 419 579 380 q 601 340 601 290 q 601 216 561 141 q 521 66 457 24 q 394 -18 317 -18 q 223 -18 178 40 q 133 98 133 200 q 133 331 179 459 q 225 587 315 664 q 406 741 510 741 q 569 741 651 714 z m 343 54 q 387 54 422 82 q 457 110 480 161 q 503 212 503 270 q 503 336 473 365 q 442 393 403 393 q 360 393 319 367 q 278 342 256 291 q 234 239 234 183 q 234 117 264 85 q 294 54 343 54 z"},"r":{"x_min":0,"x_max":603,"ha":603,"o":"m 150 0 l 256 530 l 353 530 l 327 431 l 333 431 q 375 481 428 511 q 481 542 552 542 q 595 542 648 530 l 618 379 l 545 379 l 561 455 q 539 460 521 460 q 472 460 420 431 q 369 403 316 345 l 247 0 z"},"2":{"x_min":0,"x_max":603,"ha":603,"o":"m 82 0 l 99 84 q 181 200 323 317 l 375 360 q 433 408 469 463 q 504 518 504 573 q 504 614 478 641 q 452 668 401 668 q 371 668 335 661 q 300 654 224 618 l 241 703 q 338 741 425 741 q 519 741 564 695 q 608 649 608 585 q 608 527 575 467 q 542 407 438 325 l 390 286 q 349 254 315 221 q 281 188 256 156 q 230 125 213 84 l 508 84 l 492 0 z"},"{":{"x_min":0,"x_max":603,"ha":603,"o":"m 654 771 l 640 699 l 602 699 q 538 699 508 687 q 478 675 464 648 q 449 621 449 574 l 447 506 q 447 459 433 420 q 419 381 390 354 q 361 327 317 313 q 349 303 364 286 q 378 269 384 252 q 390 235 390 215 q 390 177 370 120 l 345 53 q 329 10 329 -11 q 329 -42 353 -57 q 376 -72 448 -72 l 486 -72 l 471 -145 l 418 -145 q 323 -145 281 -115 q 239 -85 239 -27 q 239 4 261 62 l 295 149 q 309 186 309 213 q 309 238 289 258 q 268 277 214 277 l 170 277 l 185 350 l 229 350 q 278 350 308 367 q 337 385 349 413 q 360 441 360 478 l 361 564 q 361 637 388 681 q 415 725 466 748 q 517 771 602 771 z"},"9":{"x_min":0,"x_max":603,"ha":603,"o":"m 114 7 l 130 90 q 190 64 215 59 q 239 54 262 54 q 354 54 419 135 q 484 217 511 354 q 479 316 450 298 q 421 280 389 271 q 357 261 324 261 q 282 261 245 282 q 208 304 187 343 q 165 383 165 434 q 165 508 205 583 q 246 658 309 699 q 372 741 448 741 q 543 741 587 682 q 632 624 632 522 q 632 393 586 264 q 540 135 449 59 q 359 -18 256 -18 q 199 -18 114 7 z m 422 668 q 379 668 344 641 q 309 613 285 562 q 262 511 262 454 q 262 386 292 358 q 323 330 361 330 q 405 330 447 356 q 488 382 510 433 q 531 483 531 541 q 531 606 501 637 q 471 668 422 668 z"}," ":{"x_min":0,"x_max":603,"ha":603,"o":""},"I":{"x_min":0,"x_max":603,"ha":603,"o":"m 84 0 l 99 72 l 268 72 l 383 650 l 214 650 l 229 723 l 663 723 l 648 650 l 479 650 l 364 72 l 533 72 l 518 0 z"},"H":{"x_min":0,"x_max":603,"ha":603,"o":"m 72 0 l 217 723 l 313 723 l 251 416 l 517 416 l 578 723 l 674 723 l 530 0 l 434 0 l 502 343 l 237 343 l 168 0 z"},"4":{"x_min":0,"x_max":603,"ha":603,"o":"m 355 0 l 394 193 l 93 193 l 109 274 l 500 723 l 590 723 l 499 265 l 595 265 l 581 193 l 484 193 l 446 0 z m 188 265 l 408 265 l 474 593 z"},"~":{"x_min":0,"x_max":603,"ha":603,"o":"m 80 187 q 98 262 142 305 q 186 348 245 348 q 270 348 290 341 q 311 335 341 316 l 404 276 q 453 245 482 245 q 497 245 514 253 q 530 261 540 276 q 550 290 561 332 l 627 332 q 608 255 564 213 q 520 170 461 170 q 437 170 416 177 q 395 184 365 202 l 302 242 q 253 273 224 273 q 209 273 192 265 q 176 256 166 242 q 156 227 146 187 z"},"D":{"x_min":0,"x_max":603,"ha":603,"o":"m 63 0 l 208 723 l 397 723 q 529 723 590 666 q 651 610 651 490 q 651 371 604 253 q 558 136 466 68 q 375 0 227 0 z m 174 72 l 223 72 q 254 72 281 74 q 326 78 365 95 q 403 113 431 142 q 490 202 519 299 q 547 395 547 478 q 547 537 526 578 q 505 619 468 634 q 450 640 427 646 q 404 651 334 651 l 290 650 z"},"^":{"x_min":0,"x_max":603,"ha":603,"o":"m 71 145 l 446 723 l 589 145 l 509 145 l 410 542 l 152 145 z"},"0":{"x_min":0,"x_max":603,"ha":603,"o":"m 296 -18 q 206 -18 159 48 q 113 113 113 229 q 113 354 160 479 q 207 604 280 672 q 354 741 448 741 q 543 741 588 675 q 634 608 634 494 q 634 368 586 243 q 539 118 466 50 q 392 -18 296 -18 z m 312 54 q 375 54 424 114 q 472 174 505 302 q 537 430 537 516 q 537 590 511 629 q 484 668 434 668 q 374 668 325 610 q 276 552 243 423 q 210 294 210 207 q 210 132 236 93 q 263 54 312 54 z"},"F":{"x_min":0,"x_max":603,"ha":603,"o":"m 121 0 l 265 723 l 711 723 l 696 650 l 347 650 l 295 390 l 593 390 l 578 317 l 280 317 l 217 0 z"},"`":{"x_min":0,"x_max":603,"ha":603,"o":"m 462 626 l 359 771 l 467 771 l 546 626 z"},"k":{"x_min":0,"x_max":603,"ha":603,"o":"m 104 0 l 258 771 l 354 771 l 256 277 l 528 530 l 633 530 l 375 292 l 580 0 l 450 0 l 256 277 l 200 0 z"},"u":{"x_min":0,"x_max":603,"ha":603,"o":"m 620 530 l 514 0 l 417 0 l 443 100 l 437 100 q 394 45 341 17 q 288 -12 233 -12 q 177 -12 144 19 q 111 50 111 96 q 111 126 119 167 l 192 530 l 288 530 l 221 194 q 213 157 213 139 q 213 113 231 96 q 249 79 282 79 q 321 79 363 105 q 404 131 454 184 l 523 530 z"},"]":{"x_min":0,"x_max":603,"ha":603,"o":"m 540 771 l 357 -145 l 56 -145 l 70 -72 l 287 -72 l 441 699 l 224 699 l 239 771 z"},"U":{"x_min":0,"x_max":603,"ha":603,"o":"m 221 723 l 317 723 l 221 243 q 210 186 210 153 q 210 114 236 84 q 263 54 316 54 q 376 54 423 90 q 470 125 494 246 l 589 723 l 674 723 l 582 260 q 565 179 549 142 q 521 76 457 29 q 393 -18 302 -18 q 216 -18 165 25 q 113 67 113 152 q 113 183 125 245 z"},"o":{"x_min":0,"x_max":603,"ha":603,"o":"m 298 -12 q 200 -12 149 42 q 98 95 98 188 q 98 233 110 283 q 122 333 143 374 q 183 452 251 497 q 320 542 406 542 q 515 542 564 487 q 614 432 614 342 q 614 296 602 247 q 590 198 569 156 q 529 79 462 33 q 394 -12 298 -12 z m 313 60 q 350 60 382 75 q 414 90 436 116 q 472 158 491 219 q 511 279 511 337 q 511 403 480 436 q 450 470 396 470 q 361 470 329 455 q 297 440 275 414 q 240 373 220 312 q 201 251 201 193 q 201 127 231 94 q 262 60 313 60 z"},"N":{"x_min":0,"x_max":603,"ha":603,"o":"m 72 0 l 217 723 l 308 723 l 485 173 l 486 173 l 596 723 l 674 723 l 530 0 l 441 0 l 262 553 l 261 553 l 150 0 z"},"+":{"x_min":0,"x_max":603,"ha":603,"o":"m 265 0 l 309 223 l 86 223 l 101 295 l 324 295 l 368 518 l 440 518 l 396 295 l 619 295 l 604 223 l 382 223 l 337 0 z"},"G":{"x_min":0,"x_max":603,"ha":603,"o":"m 558 16 q 476 -9 441 -14 q 406 -18 374 -18 q 240 -18 171 53 q 102 125 102 258 q 102 394 169 520 q 228 631 320 686 q 412 741 522 741 q 598 741 689 714 l 672 625 q 590 669 508 669 q 452 669 404 646 q 355 624 322 585 q 269 525 237 437 q 205 348 205 269 q 205 171 263 115 q 321 60 407 60 q 431 60 471 67 l 520 311 l 617 311 z"},"q":{"x_min":0,"x_max":603,"ha":603,"o":"m 625 530 l 480 -193 l 384 -193 l 422 0 l 448 100 l 442 100 q 396 44 347 16 q 298 -12 247 -12 q 172 -12 134 35 q 95 83 95 162 q 95 211 108 265 q 121 320 143 366 q 183 448 248 495 q 313 542 385 542 q 423 542 456 528 q 489 514 516 470 l 522 470 l 552 530 z m 501 397 q 476 434 447 452 q 417 470 385 470 q 354 470 321 452 q 289 434 268 406 q 233 360 216 290 q 199 220 199 172 q 199 124 222 97 q 246 70 281 70 q 317 70 363 95 q 409 119 457 172 z"},"d":{"x_min":0,"x_max":603,"ha":603,"o":"m 430 0 l 456 100 l 450 100 q 404 44 355 16 q 306 -12 255 -12 q 180 -12 141 35 q 103 83 103 162 q 103 255 142 347 q 181 438 249 490 q 316 542 393 542 q 431 542 464 528 q 497 514 524 470 l 530 470 l 538 542 l 584 771 l 681 771 l 526 0 z m 509 397 q 483 434 454 452 q 425 470 393 470 q 345 470 301 433 q 257 396 232 317 q 207 239 207 172 q 207 124 230 97 q 253 70 289 70 q 325 70 371 95 q 417 119 464 172 z"},"1":{"x_min":0,"x_max":603,"ha":603,"o":"m 90 0 l 104 72 l 297 72 l 410 634 l 208 591 l 220 650 l 527 741 l 394 72 l 586 72 l 572 0 z"},"5":{"x_min":0,"x_max":603,"ha":603,"o":"m 133 4 l 149 86 q 226 54 272 54 q 319 54 360 82 q 400 109 425 159 q 449 209 449 261 q 449 316 405 348 q 361 380 265 380 q 247 380 221 378 l 290 723 l 629 723 l 612 639 l 354 639 l 317 451 q 429 451 490 402 q 550 354 550 262 q 550 188 512 124 q 474 59 406 21 q 339 -18 259 -18 q 206 -18 133 4 z"}}}
